<?xml version="1.0" ?>
<svg xmlns="http://www.w3.org/2000/svg" width="319" height="319" viewBox="0 0 319 319">
  <rect width="100%" height="100%" fill="none"/>
  <path d="M 188 131 L 188 163 L 194 163 L 194 131 Z" fill="#FFFFFF" stroke="none"/>
  <path d="M 199 130 L 198 131 L 198 136 L 207 136 L 208 137 L 208 163 L 214 163 L 214 137 L 215 136 L 224 136 L 224 130 L 213 130 L 212 131 L 209 131 L 208 130 Z" fill="#FFFFFF" stroke="none"/>
  <path d="M 170 130 L 169 131 L 169 132 L 167 134 L 167 135 L 165 137 L 165 138 L 163 140 L 163 141 L 162 142 L 162 143 L 160 145 L 160 146 L 158 148 L 158 149 L 157 150 L 157 154 L 158 155 L 172 155 L 173 156 L 173 163 L 179 163 L 179 156 L 180 155 L 183 155 L 183 151 L 182 150 L 180 150 L 179 149 L 179 144 L 173 144 L 173 149 L 172 150 L 164 150 L 163 149 L 165 147 L 165 146 L 167 144 L 167 143 L 169 141 L 169 140 L 171 138 L 171 137 L 173 135 L 173 134 L 175 132 L 175 130 L 174 130 L 173 131 L 172 131 L 171 130 Z" fill="#FFFFFF" stroke="none"/>
  <path d="M 93 109 L 88 114 L 89 118 L 94 122 L 94 142 L 89 146 L 89 152 L 94 156 L 94 173 L 95 156 L 98 154 L 105 163 L 128 162 L 127 158 L 111 157 L 110 130 L 105 131 L 105 157 L 99 153 L 100 147 L 95 143 L 95 122 L 101 116 L 121 116 L 115 126 L 122 119 L 127 121 L 131 119 L 141 129 L 131 135 L 130 143 L 134 147 L 146 151 L 149 156 L 145 159 L 140 159 L 132 155 L 129 158 L 133 162 L 141 165 L 131 175 L 122 175 L 115 169 L 122 177 L 120 179 L 101 179 L 120 180 L 124 185 L 130 185 L 133 181 L 132 176 L 154 157 L 154 151 L 151 147 L 138 143 L 135 139 L 139 135 L 145 135 L 150 138 L 153 133 L 144 130 L 132 118 L 133 113 L 127 108 L 120 114 L 101 114 L 98 110 Z" fill="#FFFFFF" stroke="none"/>
</svg>
